# xmcd
#
# Track frame offsets:
#	150
#	15982
#	38472
#	55635
#	67137
#	85902
#	102975
#	108832
#	119077
#	129332
#	151765
#	177505
#	188702
#	199202
#	209677
#	222267
#	236157
#	247300
#
# Disc length: 3431 seconds
#
# Revision: 0
# Processed by: cddbd v1.5.2PL0 Copyright (c) Steve Scherf et al.
# Submitted via: EasyCDDAExtractor 2010.6.0.0
#
DISCID=030d6512
DTITLE=Eric Clapton and The Yardbirds - Eric's Blues
DYEAR=2001
DGENRE=Blues
TTITLE0=Louise
TTITLE1=Five Years Long
TTITLE2=Early in the Morning
TTITLE3=Pounds and Stomps
TTITLE4=They Call It Stormy Monday
TTITLE5=Big Boss Man
TTITLE6=Choker
TTITLE7=Eric's Blues
TTITLE8=A Certain Girl
TTITLE9=First Time I Met the Blues
TTITLE10=She's So Respectable
TTITLE11=Snake Drive
TTITLE12=West Coast Idea
TTITLE13=Got to Hurry
TTITLE14=Freight Loader
TTITLE15=Draggin' My Tail
TTITLE16=For Your Love
TTITLE17=I Wish You Would
EXTD=
EXTT0=
EXTT1=
EXTT2=
EXTT3=
EXTT4=
EXTT5=
EXTT6=
EXTT7=
EXTT8=
EXTT9=
EXTT10=
EXTT11=
EXTT12=
EXTT13=
EXTT14=
EXTT15=
EXTT16=
EXTT17=
PLAYORDER=
